/* XPM */
static char *bf2031aa7bd240fe91a8b1875e8174b34qe3U874LWN4Y6pm[] = {
/* columns rows colors chars-per-pixel */
"16 16 11 1 ",
"  c #1A1C2C",
". c #333C57",
"X c #29366F",
"o c #5D275D",
"O c #B13E53",
"+ c #EF7D57",
"@ c #566C86",
"# c #3B5DC9",
"$ c #41A6F6",
"% c #73EFF7",
"& c #94B0C2",
/* pixels */
"@@@@@@@@@@@@@@@@",
"@@@@@@@@@@@@@@@@",
"@@oo@X$%%$X@oo@@",
"@@o+X$ .. $X+o@@",
"@@.O.%.&&.%.O.@@",
"@@.&.%.&&.%.&.@@",
"@@ @.$ .. $.@ @@",
"@## @.$%%$.@ ##@",
" $$# @....@ #$$ ",
"  %$  &@@&  $%  ",
"@@.$ &    & $.@@",
"@.@. @ ## @ .@.@",
"@ &@ @ $$ @ @& @",
"@@    #$$#    @@",
"@@@@@@    @@@@@@",
"@@@@@@@@@@@@@@@@"
};
