/* XPM */
static char *d1612dc93dca45b1d50a2dc5aac0b543JGAsXYW9I2r9AwTy[] = {
/* columns rows colors chars-per-pixel */
"36 47 38 1 ",
"  c black",
". c #040404",
"X c #0B0B0B",
"o c #0E0E0E",
"O c gray7",
"+ c #161616",
"@ c gray10",
"# c gray11",
"$ c #202020",
"% c #252525",
"& c gray16",
"* c #2D2D2D",
"= c #313131",
"- c #676767",
"; c gray43",
": c gray45",
"> c #767676",
", c gray47",
"< c #7C7C7C",
"1 c #818181",
"2 c gray53",
"3 c #8B8B8B",
"4 c #8E8E8E",
"5 c #909090",
"6 c #979797",
"7 c #9F9F9F",
"8 c #D2D2D2",
"9 c gray84",
"0 c #DADADA",
"q c #DFDFDF",
"w c #E1E1E1",
"e c #E4E4E4",
"r c #E9E9E9",
"t c gray93",
"y c #F3F3F3",
"u c gray97",
"i c gray98",
"p c white",
/* pixels */
"         . =pppppppppppt# .         ",
"         . *tpppppppppp0@ .         ",
"         . *eiyiiiiiiui8@ .         ",
"         . *rpuppppppip9@ .         ",
"         . *rpuppppppip9@ .         ",
"         . *rpuppppppip9@ .         ",
"         . *rpuppppppip9@ .         ",
"         . *rpuppppppip9@ .         ",
"         . *rpuppppppip9@ .         ",
"         . *rpuppppppip9@ .         ",
"         . *rpuppppppip9@ .         ",
"         . *rpuppppppip9@ .         ",
"         . *rpuppppppip9@ .         ",
"         . *rpuppppppip9@ .         ",
"         . *rpuppppppip9@ .         ",
"         . *rpuppppppip9@ .         ",
"         . *rpuppppppip9@ .         ",
"         . *rpuppppppip9@ .         ",
"         . *rpuppppppip9@ .         ",
"         . *rpuppppppip9@ .         ",
"         . *rpuppppppip9@ .         ",
"         . *rpuppppppip9@ .         ",
"         . *rpuppppppip9@ .         ",
"         . *rpuppppppip9@ .         ",
"         . *rpuppppppip9@ .         ",
"         . *rpuppppppip9@ .         ",
"........XX.=rpuppppppip9$.o.........",
"           $rpuppppppip9o           ",
"           #epuppppppip9X           ",
"132333334437upippppppppt63433333333,",
"pppppppppppppppppppppppppppppppppppt",
"uppppppppppppppppppppppppppppppppppw",
"wyryyyiiiiiippppppppppppiiiiiiyyyty8",
"ippppppppppppppppppppppppppppppppppe",
"pppppppppppppppppppppppppppppppppppr",
";>:,>5upippppppppppppppppppipr2>,:>-",
"     #rpuppppppppppppppppppip9X     ",
"     &rpuppppppppppppppppppip9+     ",
"...X.=eiyiiippppppppppppiiuyi9$.o...",
"   . =uppppppppppppppppppppppw# .   ",
"   . =pppppppppppppppppppppppr# .   ",
"     +;,>,,5ypippppppppr2,<>,-o     ",
"           @epuppppppip8.           ",
"           %rpuppppppip9O           ",
"      ...X.=wiyiiiiiuyi8#.o...      ",
"         . *yppppppppppq@ .         ",
"         . =ippppppppppe# .         "
};
