/* XPM */
static char *_9e1f8bfb7194a10f194b4bfcef2d5d6DC3NREuehnIhDLbL[] = {
/* columns rows colors chars-per-pixel */
"104 72 160 2 ",
"   c None",
".  c #020101",
"X  c #0C0000",
"o  c #0D0907",
"O  c #060709",
"+  c #0C0C0C",
"@  c #140000",
"#  c #1B0100",
"$  c #110902",
"%  c #1A0D00",
"&  c #120E09",
"*  c #1E1202",
"=  c #1E170F",
"-  c #0F1417",
";  c #141414",
":  c #1A1511",
">  c #1F1914",
",  c #16191B",
"<  c #1C1C1C",
"1  c #240000",
"2  c #260B00",
"3  c #2A0C00",
"4  c #241302",
"5  c #291500",
"6  c #2D1F03",
"7  c #21180C",
"8  c #2D1E0B",
"9  c #311B00",
"0  c #221D17",
"q  c #2A1F15",
"w  c #211E1C",
"e  c #302105",
"r  c #2E2114",
"t  c #22201F",
"y  c #342A1F",
"u  c #061925",
"i  c #1C1E21",
"p  c #171F24",
"a  c #172026",
"s  c #1D2124",
"d  c #1D2428",
"f  c #172329",
"g  c #172A37",
"h  c #182B38",
"j  c #18303F",
"k  c #232323",
"l  c #2C2925",
"z  c #252729",
"x  c #262B2E",
"c  c #2C2C2C",
"v  c #322A22",
"b  c #332E2A",
"n  c #34312E",
"m  c #252E34",
"M  c #292D31",
"N  c #2D3134",
"B  c #26343B",
"V  c #2A353B",
"C  c #363636",
"Z  c #383634",
"A  c #363738",
"S  c #37393B",
"D  c #39393A",
"F  c #153444",
"G  c #173749",
"H  c #093950",
"J  c #2C3941",
"K  c #2A3D48",
"L  c #323E45",
"P  c #3B3E40",
"I  c #313F48",
"U  c #2C404C",
"Y  c #3D4143",
"T  c #31444F",
"R  c #20485F",
"E  c #364954",
"W  c #384F5D",
"Q  c #3D525E",
"!  c #004462",
"~  c #184E6A",
"^  c #1A536F",
"/  c #195472",
"(  c #1B5B7B",
")  c #3B5461",
"_  c #3F5866",
"`  c #424242",
"'  c #405663",
"]  c #415967",
"[  c #435D6C",
"{  c #45606E",
"}  c #466272",
"|  c #486575",
" . c #4C6A7A",
".. c #1E5F80",
"X. c #006993",
"o. c #236A8E",
"O. c #236E93",
"+. c #1E7AA5",
"@. c #2478A1",
"#. c #4E6E80",
"$. c #46738C",
"%. c #4A748C",
"&. c #527284",
"*. c #56798C",
"=. c #587B8E",
"-. c #4D7A93",
";. c #5A7D91",
":. c #2B85B2",
">. c #2E8DBC",
",. c #2C88B6",
"<. c #5E8397",
"1. c #5E8499",
"2. c #60879C",
"3. c #62899F",
"4. c #648CA2",
"5. c #6790A7",
"6. c #6A94AB",
"7. c #6F9BB3",
"8. c #719EB7",
"9. c #75A4BD",
"0. c #2693C6",
"q. c #2692C6",
"w. c #2692C5",
"e. c #2695C9",
"r. c #2A97CC",
"t. c #3093C5",
"y. c #3292C2",
"u. c #3296C9",
"i. c #349ACD",
"p. c #379ED2",
"a. c #379DD1",
"s. c #359ED2",
"d. c #38A2D7",
"f. c #36A3DA",
"g. c #77A6C0",
"h. c #78A8C2",
"j. c #7CACC7",
"k. c #79A9C4",
"l. c #7DAEC9",
"z. c #7FB1CC",
"x. c #81B3CF",
"c. c #82B5D2",
"v. c #86BAD6",
"b. c #85B9D6",
"n. c #87BBD8",
"m. c #89BEDB",
"M. c #8BC1DE",
"N. c #8EC5E4",
"B. c #90C7E6",
"V. c #92C9E7",
"C. c #90C8E7",
"Z. c #90C8E7",
"A. c #91C9E8",
"S. c #91C9E9",
"D. c #92C9E8",
"F. c #92CAE9",
"G. c #93CCEB",
"H. c #96D0F1",
"J. c #9AD5F6",
"K. c #9BD7F8",
/* pixels */
"                                                                                                                                                                                                                ",
"                                                                                      O .       < ;         ; <       . O                                                                                       ",
"                                                                                    ; z k     z D <         < D z     k z ;                                                                                     ",
"                                                                                    k D A   < D A ;         ; A D <   A D k                                                                                     ",
"                                                                                    k D A . z D A k s s s s k A D z . A D k                                                                                     ",
"                                                                                    k D A . z D S A y v v y A S A z . A D k                                                                                     ",
"                                                                                    k D A . z P e M ' ' ' ' M e P z . A D k                                                                                     ",
"                                                                                    k D A . z 9 ! %.B.N.N.B.%.! 9 z . A D k                                                                                     ",
"                                                                                    k D A O @ O.e.-.A.A.A.A.-.e.O.@ O A D k                                                                                     ",
"                                                                                    k D A . O.d.0.-.V.A.A.V.-.0.d.O.. A D k                                                                                     ",
"                                                                                    k D M X :.a.0.-.V.A.A.V.-.0.a.:.X M D k                                                                                     ",
"                                                                                    k D z @ :.a.0.-.A.A.A.A.-.0.a.:.@ z D k                                                                                     ",
"                                                                                    k A i @ :.a.0.-.A.A.A.A.-.0.a.:.@ i A k                                                                                     ",
"                                                                                    z C , # :.a.0.-.A.A.A.A.-.0.a.:.# , C z                                                                                     ",
"                                                                                    z z i # ,.a.0.-.A.A.A.A.-.0.a.,.# i z z                                                                                     ",
"                                                                                    k < k : >.a.0.-.V.V.V.V.-.0.a.>.: t < k                                                                                     ",
"                                                                                    ; < t p >.a.0.-.G.G.G.G.-.0.a.>.a t < ;                                                                                     ",
"                                                                                    . s 0 h t.i.r.$.v.v.v.v.$.r.i.t.h 0 i .                                                                                     ",
"                                                                                    + k 0 g t.p.@.k c c c c t @.p.t.g 0 k +                                                                                     ",
"                                                                                    ; k 7 j u.O.1 Z A A A A Z 1 O.u.j 7 k ;                                                                                     ",
"                                                                                    < k 4 G ( 3 D A A A A A A D 3 ( G 4 k <                                                                                     ",
"                                                                                  O k k k & 6 D A A A A A A A A D 6 $ k k k O                                                                                   ",
"                                                                                  + k k k < S A A A A A A A A A A S , k k k +                                                                                   ",
"                                                                                  + k k k < A A A A A A A A A A A A < k k k +                                                                                   ",
"                                                                                  + k k < < A A A A A A A A A A A A < < k k +                                                                                   ",
"                                                                                  + k k < < A A A A A A A A A A A A < < k k +                                                                                   ",
"                                                . + + + + .                       + k k k ; k c A A A A A A A D c k ; k k k +                       . + + + + .                                                 ",
"                                                < z z z z z O                     + k k < k C k k C A A A A C k k C k < k k +                     O z z z z z <                                                 ",
"                                                C ` ` ` ` ` ;                     + k z < k D Z c < z A A z < c A D k < z k +                     ; ` ` ` ` ` C                                                 ",
"                                                c ` D D ` D ;                     O ; < ; k Z A A A z < < z A A A A k ; < ; O                     ; D ` D D ` c                                                 ",
"                                                C ` D ` ` D ;               + ; < ; < t , z D A A A D z z D A A A D z < k < ; < ; +               ; D ` ` D ` C                                                 ",
"                                                C ` D ` ` ` ;       + ; < < k k k ; k k < z D A A A A c c A A A A A z < k k ; k k k < < ; +       + ` ` ` D ` C                                                 ",
"                                                C ` ` D D c + ; < < z x k k k k < + k k < z A A A A A c c A A A A A z < k t + < k k t k x z < < ; + c D D ` ` C                                                 ",
"                                                z A z < ; < z M M w X . : d + + < ; k k < z A A A A A c c A A A A A z < k t ; < o + d : . X w M M z < ; < z A z                                                 ",
"                                            O + ; < k x c t X . . x } &.} B k C D < < k < z D A A A A c c A A A A A z < k < < A C k B } &.} x . . X t c x k < ; + O                                             ",
"                                    . + ; s x M z = . . . , [ 4.h.h.4.[ N n D A A < w k < z D A A A A c c A A A A A z , k < < A A D n N [ 4.k.h.4.[ , . . . = z M x s ; + .                                     ",
"                              + ; s x M z # . . . J | 4.j.N.A.x.<.L # 8 A A A A A < w k < z D A A A A c c A A A A D z < k < < A A A A A 8 # L <.x.A.N.j.4.| J . . . # z M x s ; +                               ",
"                      + , s x M t @ . . X E &.6.l.M.H.J.N.7.] X # n D S A A A A A < t k , z D A A A A c c A A A A D z < k < < A A A A A S D n # X ] 7.N.J.H.M.l.6.&.E X . . @ t M x s , +                       ",
"              + , s x x > X . . i _ ;.8.c.N.G.H.J.G.z.;.M @ r D D A A A A A A A A < < k , z D A A A A c c D A A A D z < k < < A A A A A A A A D D r @ M ;.z.G.J.H.G.N.c.8.;._ i . . X > x x s , +               ",
"      O , d x z % . . . B | 3.g.n.A.G.G.G.G.G.M.7.{ # 1 Z P D A A A A A A A A A A < < k , z D A A A A c c A A A A D c < k w < A A A A A A A A A A D P Z 1 # { 7.M.G.G.G.G.G.A.n.g.3.| B . . . % z x d , O       ",
"  K ) % @ . . . T &.6.l.M.A.G.G.A.B.A.G.A.c.1.I @ 8 D D A A A A A A A A A A A A A < < k , c D A D Z D c c D A A A D c , k < < A A A A A A A A A A A A A D D 8 @ I 1.c.A.G.A.B.A.G.G.A.M.l.6.&.T . . . @ % ) K   ",
"    f X _ 1.7.c.N.G.G.G.A.V.B.B.G.G.N.9. .* # n P D A A A A A A A A A A A A A A A < < k , c A c c c b z k c c c c A c , k < < A A A A A A A A A A A A A A A D P n # *  .9.N.G.G.B.B.V.A.G.G.G.N.c.7.1._ X f     ",
"        #.A.K.G.A.V.B.V.V.A.A.A.v.4.E @ 5 D P S A A A A A A A A A A A A A A A A A < < k < c k z z z z z z z z z k k c , k w < A A A A A A A A A A A A A A A A A S P D 5 @ E 4.v.A.A.A.V.V.B.V.A.G.K.A.#.        ",
"          O 7.G.G.V.A.A.A.V.A.2.. 2 b P D A A A A A A A A A A A A A A A A A A A A < < k < ; c D A D D D D A A A D c ; < k w < A A A A A A A A A A A A A A A A A A A A D P b 2 . 2.A.V.A.A.A.V.G.G.7.O           ",
"               .m.H.A.V.A.V.A.m.&.# D S A A A A A A A A A A A A A A A A A A A A A < < k ; z D A A A A A A A A A A D z ; k < < A A A A A A A A A A A A A A A A A A A A C S D # &.m.A.V.A.V.A.H.m. .              ",
"                . 6.G.H.V.A.V.G.G.5.@ b P A A A A A A A A A A A A A A A A A A A A < < k ; c D A A A A A A A A A A Z b ; k w < A A A A A A A A A A A A A A A A A A A A D b @ 5.G.G.V.A.V.H.G.6..                 ",
"                    [ v.H.A.V.V.V.H.k.V 4 Y A A A A A A A A A A A A A A A A A A Z < w k ; c D A A A A A A A A A A A c , k < < A A A A A A A A A A A A A A A A A A A Y 4 V k.H.V.V.V.A.H.v.[                     ",
"                        2.A.H.A.V.B.G.m.[ @ P S A A A A A A A A A A A A A A A C A < < k ; c D A A A A A A A A A A Z c ; k < < A C A A A A A A A A A A A A A A A S P @ [ m.G.B.V.A.H.A.2.                        ",
"                          W z.H.G.B.B.G.A.1.. b S A A A A A D A A C b z z k < < < ; k k ; c D A A A A A A A A A A D c ; k k ; < < < k z c C C A A D A A A A A S b . 1.A.G.B.B.G.H.z.W                           ",
"                              ;.V.H.A.N.V.G.9.J n D A A C c z k < ; ; ; O < k k k & s k ; z A C C C C n C C C C C A z ; k s & k t k < O ; ; ; < k z c C A A D n J 9.G.V.N.A.H.V.;.                              ",
"                                U h.G.H.G.A.A.7.$ z i < ; + ; O ; + O ;   + + O . u . @ a ; < z k z M N N M z z k , ; a @ . u . O + +   ; O + ; O ; + ; < i z $ 7.A.A.G.H.G.h.U                                 ",
"                                    *.7.=.[ m s - ; + + ; . +                     / ,.F # s c Y D v 1 # # 1 v D Y x i # F ,./                     + . ; + + ; - s m [ =.7.*.                                    ",
"                                      . . . . o   +                               ~ f.u.( X @ # t Q =.8.8.=.Q t # @ X ..u.f.~                               +   o . . . .                                       ",
"                                                                                  ~ a.i.d.+.[ 9.c.N.G.G.G.G.N.b.9.[ +.d.i.i.~                                                                                   ",
"                                                                                  ^ f.i.y.X.6.J.A.A.V.B.B.V.A.A.J.6.X.y.i.f.^                                                                                   ",
"                                                                                  H o.R N . 4.G.N.B.B.B.V.B.B.N.G.4.. V R o.H                                                                                   ",
"                                                                            + < k l 9 y Y # 6.J.G.G.G.G.G.G.G.G.J.6.# Y y 9 l k < +                                                                             ",
"                                                                    + < z c A D Z A S S D q [ 3.<.1.1.1.1.1.1.<.3.[ q D S S D D A A c z < +                                                                     ",
"                                                            O < k c A D D D A A A A A A A C . . . . . . . . . . . . C A A A A A A A A A A C c k < O                                                             ",
"                                                        . k A D D D D D A A A A A A A A A C i M x x x x x x x x M i C A A A A A A A A A A D D D D A k .                                                         ",
"                                                            k z z z z c A A A A A A A A A C ; k k k k k k k k k k ; C A A A A A A A A A c z z z z k                                                             ",
"                                                              . ; < < : < n A A A A A A A C ; k k k k k k k k k k , C A A A A A A D C < ; < < ; .                                                               ",
"                                                                  ; k z < ; k C A A A A A C ; < < < < < , , , ; < & C A A A A A A k ; < z k ;                                                                   ",
"                                                                    . < k k < : z A A A A C ; < < < < < < < < < < ; C A A A A z ; < k z < O                                                                     ",
"                                                                        + < z k ; ; z A D C ; < < < < < < < < < < ; C D A c < ; k z k ;                                                                         ",
"                                                                          . ; k z < ; < C C ; < < < < < < < < < < ; C C < ; < k k < O                                                                           ",
"                                                                              + < k k < ; < ; < < < < < < < < < < ; < ; < k k < +                                                                               ",
"                                                                                . ; k k k < + ; ; ; ; ; ; ; ; ; ; + < k k k ; .                                                                                 ",
"                                                                                    + < k < + < < < < < < < < < < + < k < +                                                                                     ",
"                                                                                      . ; < . O + + + + + + + + O . < ; .                                                                                       ",
"                                                                                          O                         +                                                                                           ",
"                                                                                                                                                                                                                "
};
