/* XPM */
static char *_39eab1e55554f9083907cb7db5f47901C6xF0ImlrVmoVro[] = {
/* columns rows colors chars-per-pixel */
"35 36 136 2 ",
"   c None",
".  c #040000",
"X  c #0D0D0D",
"o  c #120000",
"O  c #1A0400",
"+  c #130A02",
"@  c #1F0E00",
"#  c #160F08",
"$  c #1E150D",
"%  c #131313",
"&  c #181716",
"*  c #191917",
"=  c #171718",
"-  c #161819",
";  c #1D1D1D",
":  c #240100",
">  c #280000",
",  c #210B00",
"<  c #290F00",
"1  c #330000",
"2  c #241300",
"3  c #2C1300",
"4  c #261A05",
"5  c #291A00",
"6  c #221B0F",
"7  c #281C08",
"8  c #231C13",
"9  c #221F1C",
"0  c #38250B",
"q  c #25201B",
"w  c #2E261A",
"e  c #3A2813",
"r  c #1C1E21",
"t  c #1F2021",
"y  c #1D262D",
"u  c #1D2A34",
"i  c #232423",
"p  c #2A2723",
"a  c #2C2926",
"s  c #232729",
"d  c #25292B",
"f  c #2A2A2B",
"g  c #362D23",
"h  c #332F2A",
"j  c #31302F",
"k  c #272E33",
"l  c #2A2E31",
"z  c #222F39",
"x  c #273036",
"c  c #2E3134",
"v  c #2B3439",
"b  c #343434",
"n  c #383533",
"m  c #3C3936",
"M  c #323639",
"N  c #35393C",
"B  c #3B3B3B",
"V  c #42382B",
"C  c #413B36",
"Z  c #403E3B",
"A  c #42413F",
"S  c #173C52",
"D  c #2E3C44",
"F  c #323D44",
"G  c #3D3F41",
"H  c #1C455C",
"J  c #3E4143",
"K  c #34424D",
"L  c #3B444A",
"P  c #25475C",
"I  c #26495F",
"U  c #354954",
"Y  c #394A54",
"T  c #364C59",
"R  c #394E5B",
"E  c #044866",
"W  c #144763",
"Q  c #1D4B64",
"!  c #184F6D",
"~  c #24536C",
"^  c #395467",
"/  c #3A576C",
"(  c #245470",
")  c #29607E",
"_  c #424242",
"`  c #414548",
"'  c #444B52",
"]  c #475965",
"[  c #50636C",
"{  c #486373",
"}  c #4B697B",
"|  c #0C6D97",
" . c #006F9A",
".. c #0F6F99",
"X. c #116C96",
"o. c #00719D",
"O. c #256385",
"+. c #20668A",
"@. c #326B8B",
"#. c #347091",
"$. c #3B7494",
"%. c #3D799B",
"&. c #0076A5",
"*. c #077AA8",
"=. c #1375A0",
"-. c #537182",
";. c #567789",
":. c #5C7B8C",
">. c #4E7C96",
",. c #567D92",
"<. c #5B7E91",
"1. c #607E8F",
"2. c #648697",
"3. c #4F86A5",
"4. c #4D86A8",
"5. c #6A8FA3",
"6. c #6591A8",
"7. c #6C93A8",
"8. c #6C95AD",
"9. c #6994AD",
"0. c #709CB4",
"q. c #719EB7",
"w. c #3391C1",
"e. c #5298C0",
"r. c #5199C2",
"t. c #569CC3",
"y. c #559CC4",
"u. c #59A0C8",
"i. c #58A1CA",
"p. c #5AA3CC",
"a. c #59A4CE",
"s. c #82B1CA",
"d. c #8EBED7",
"f. c #90C0DA",
"g. c #94C5E0",
"h. c #96C8E2",
/* pixels */
"                            x R       R                               ",
"                            q k       k 8                             ",
"                          D -.v . y # i ;.s                           ",
"                          R 8.U . v + v 0.k                           ",
"                          D -.v o k * d ;.s                           ",
"                          = 9 s O O O s q *                           ",
"                            y : ( w.~ , =                             ",
"                            z > H *.S > s                             ",
"                            < ! $.2.%.Q 2                             ",
"                            > +.@.[ #.O.,                             ",
"    r T                     6 I u o u P 9                     U y     ",
"  % 9 .                     d 4 c { l 8 i                     . ; -   ",
"% i f i X                   s 5 w F w 7 i                   X i f i % ",
"; f f f ; %           = *   3 E 3.s.4.W @   ; *           % ; f f f ; ",
"i f f f f ; %         i i u > &.p.h.a.=.O 8 i i         % ; f f f f i ",
"  ; f f f f ; %       i r s 3  .t.f.y.X.2 9 r i       % ; f f f f ;   ",
"    i ; ; f f ; %     ; t l 3 o.u.g.u...2 a r i     % ; f f i ; i     ",
"      i ; ; f f ; X   i f l 3  .e.d.e.| 2 a f i   % ; f f ; ; i       ",
"        i ; ; f f ; % p f f 4 Q >.7.>.H 8 f f p % ; f f ; ; i         ",
"          i ; ; f i i f i l $ n 5.0.5.h 8 f i f i i f ; ; i           ",
"            i ; f q N Y d p f M M M M v f f 9 Y M i f ; i %           ",
"              i f ; M L i i f j p 8 a h f i i L b 9 f i X             ",
"                l M B n i f b f c c c f b f d n m M l                 ",
"                : 0 B B i f m f f b f i m f i G m e :                 ",
"                :.<.L h s f f i b B b i b f t b L <.1.                ",
"                6.,.L n B B m f b B b f m B B m L ,.9.                ",
"                  1 n J A _ _ f b _ b f _ _ _ _ m 1                   ",
"                J ^ K m J _ m f m _ m f m _ Z Z F / B                 ",
"              g ' ) T V ` m ; i m _ m i ; m _ Z L O._ m               ",
"              B _ G J _ m ; ; * b _ l ; ; ; m _ B J _ B               ",
"              B _ Z _ N ; * f ; f _ f i i * ; M _ C _ B               ",
"              B _ _ B ; * i b ; f _ f i f i * ; B _ _ B               ",
"              g _ B i % % i f % f _ f * i i   * i B _ h               ",
"              ] _ b %     % * X ; m ; % % %     % f _ ]               ",
"                d +               F               + f }               ",
"                                                                      "
};
