/* XPM */
static char *_2b59b735970457ca39d343e3d224c06KuP33f8E5VSFwj2P[] = {
/* columns rows colors chars-per-pixel */
"48 36 144 2 ",
"   c None",
".  c #030000",
"X  c #0B0101",
"o  c #0C0B0A",
"O  c #120100",
"+  c #1C0000",
"@  c #1D0D01",
"#  c #1A1004",
"$  c #1E1408",
"%  c #141414",
"&  c #1B1610",
"*  c #1F1915",
"=  c #14171B",
"-  c #1C1C1C",
";  c #230000",
":  c #240B00",
">  c #2D0C00",
",  c #231200",
"<  c #2C1400",
"1  c #2D1A02",
"2  c #2B1D0C",
"3  c #321300",
"4  c #321E03",
"5  c #231E17",
"6  c #2E2114",
"7  c #2C241D",
"8  c #322312",
"9  c #37291B",
"0  c #382A1A",
"q  c #1D2023",
"w  c #1E262B",
"e  c #1C282F",
"r  c #1E2B35",
"t  c #242424",
"y  c #2C2620",
"u  c #292827",
"i  c #25292C",
"p  c #2A2A2A",
"a  c #322A23",
"s  c #302D2B",
"d  c #35322F",
"f  c #2C2F30",
"g  c #2E3235",
"h  c #2E3439",
"j  c #343434",
"k  c #383430",
"l  c #33373A",
"z  c #37393C",
"x  c #3A3B3C",
"c  c #423A31",
"v  c #403E3D",
"b  c #353D42",
"n  c #393D40",
"m  c #344047",
"M  c #3C4043",
"N  c #30414B",
"B  c #3F464A",
"V  c #324551",
"C  c #3D515D",
"Z  c #395162",
"A  c #2A5772",
"S  c #225976",
"D  c #424243",
"F  c #43515A",
"G  c #425966",
"H  c #465E6C",
"J  c #49606D",
"K  c #476576",
"L  c #4C6574",
"P  c #4F6C7C",
"I  c #516D7C",
"U  c #226486",
"Y  c #2779A1",
"T  c #567384",
"R  c #5A7A8D",
"E  c #5C7F92",
"W  c #2D8AB8",
"Q  c #5F8398",
"!  c #61869B",
"~  c #658A9F",
"^  c #658DA3",
"/  c #688EA4",
"(  c #6990A6",
")  c #6C95AD",
"_  c #6E99B1",
"`  c #719DB5",
"'  c #77A5BE",
"]  c #2E94C6",
"[  c #339CD0",
"{  c #78A7C1",
"}  c #7AAAC4",
"|  c #7DAEC9",
" . c #7EB0CB",
".. c #81B2CE",
"X. c #81B2CE",
"o. c #83B6D2",
"O. c #83B7D3",
"+. c #84B7D3",
"@. c #86BAD7",
"#. c #87BCD9",
"$. c #88BDDA",
"%. c #88BEDC",
"&. c #8AC0DE",
"*. c #8BC1DF",
"=. c #8CC2E0",
"-. c #8EC5E3",
";. c #8EC5E4",
":. c #8FC6E4",
">. c #8FC6E5",
",. c #90C7E5",
"<. c #90C7E6",
"1. c #90C8E7",
"2. c #91C9E8",
"3. c #91C9E9",
"4. c #90C8E8",
"5. c #91CAE8",
"6. c #91CAE9",
"7. c #92CAE9",
"8. c #92CAEA",
"9. c #93CBEB",
"0. c #93CCEB",
"q. c #93CCEC",
"w. c #94CDED",
"e. c #94CEED",
"r. c #95CEEE",
"t. c #95CFEF",
"y. c #95CEEE",
"u. c #93CCEB",
"i. c #96CFF0",
"p. c #96D0F0",
"a. c #96D1F1",
"s. c #97D2F2",
"d. c #98D3F3",
"f. c #99D4F4",
"g. c #99D4F5",
"h. c #9AD5F6",
"j. c #9BD6F7",
"k. c #9AD6F7",
"l. c #99D4F5",
"z. c #9BD7F8",
"x. c #9BD7F9",
"c. c #9DD9FB",
"v. c #9FDDFF",
"b. c #A0DEFF",
/* pixels */
"                                              j j                                               ",
"                                            j D D j                                             ",
"                                          p D D D D p                                           ",
"                . o                       p z M M z p                       o .                 ",
"                u p -       o           t x : + + : x t           o       - p u                 ",
"                l M g     i z i         j 1 R ` ` R 1 j         i z i     g M l                 ",
"                2 8 X     . 9 O         , T p.*.*.p.T <         O 9 .     X 8 2                 ",
"                J I I     T I I       H + } d.....d.} + H       I I T     I I J                 ",
"          / | -.4.0.y.h.h.y.q.y.h.p.c.~ . | p.L L p.| . ~ c.p.h.y.q.y.h.h.y.4.4.-. ./           ",
"        | h.p.4.1.,.1.4.4.1.1.4.4.4.q.I O +._ ; ; _ o.O I q.4.4.4.1.1.4.4.1.,.1.4.p.h.|         ",
"      *.p.4.,.1.y.y.y.y.y.y.y.4.,.4.;.F 2 E M x x M E 6 F ;.4.,.4.y.y.y.y.y.y.y.1.;.4.p.*.      ",
"    o.p.,.1.y.4..._ ! E ! _ ..4.y.4.$.b j 7 1 : : 1 7 j b $.4.y.4..._ ! E ! _ ..4.y.1.,.p.o.    ",
"  ` h.1.4.y.{ H + . X O X . + G ` y.#.7 x 6 I | | I 6 x y #.y.` G + . X O X . + H { y.4.1.h.`   ",
"  -.q.4.4.Q . + f g g g g g f @ . P ` s a H 1.y.y.1.H a s ` P . @ f g g g g g f + . Q 4.4.q.-.  ",
") h.4.q.R . h f p p p p p p p p g + # n ; ! p.;.;.y.! ; n @ + g p p p p p p p p f h . R q.4.h.) ",
"{ d.y.) . l p p p p p p p p p p p f u j d b *.4.4.*.m d j u f p p p p p p p p p p p l . ) y.d.{ ",
"} h.$.i u p p p p p p p p p p p p p u j x + / y.y./ + n j u p p p p p p p p p p p p p u i $.h.} ",
"{ z.^ . g p p p p p p p p p p p p p u j j j x *.*.x j j j u p p p p p p p p p p p p u g . ^ z.{ ",
"} p.C , p p p u t t t u p p p p p p u j j z 3 ( ( 3 z j j u p p p p p p u t t t u p p p , C i.} ",
" .=.$ p p p -           - p p p p p u j j j D z z D j j j u p p p p p -           - p p p $ =.| ",
"..o.. g p                 % p p p p u j j j D D D D j j j u p p p p %                 u g . o...",
"..... g -                   - p u p u j j j x j j x j j j u p p p -                   - g . ....",
"..@.O i                       p p p u p j j p - - p j j p u p p p                       i O @...",
"| 4.h *                       t p p u p j j p t t p j j p u p p t                       * h 4.| ",
"Q b.! .                       t p u u j j j p - - p j j j u u p t                       . ! v.Q ",
"  _ ;.V                       t u u j j j j x x x x j j j j t u t                       V ;._   ",
"      K                       p p s j j j j x j j x j j j j j p f                       K       ",
"                            A c D D D D D D p p p p D D D D D D c A                             ",
"                          ] Z c D D D D D j - t t - j D D D D D c Z ]                           ",
"                        [ Y 1 B x 4 0 v D g i u u i g D v 0 4 x B 1 Y [                         ",
"                      W S + % N E ~ T M < > 4 k k 4 > < M T ~ E N % + S W                       ",
"                    U w ; i t O e T { %...) T F F T ) ..%.{ T r O t i ; w U                     ",
"                X r : 5 w %       ; ; L { h.z.;.;.z.h.{ L ; ;       % w 5 : r X                 ",
"                  & q =           z n 8 .   ' y.y.'   . 8 x z           = q &                   ",
"                                  j j z g             g z j j                                   ",
"                                  % % % o             o % % %                                   "
};
