/* XPM */
static char *_e68d536029f40229df66f672d6d4817SnYG7yPak99EHye3[] = {
/* columns rows colors chars-per-pixel */
"96 72 169 2 ",
"   c None",
".  c #020101",
"X  c #0B0100",
"o  c #0B0B0B",
"O  c #150000",
"+  c #1C0000",
"@  c #160A00",
"#  c #1E0C00",
"$  c #1A130B",
"%  c #0C1418",
"&  c #131313",
"*  c #181717",
"=  c #1D1916",
"-  c #12191D",
";  c #1C1C1C",
":  c #240000",
">  c #290000",
",  c #260C00",
"<  c #2D0C00",
"1  c #241603",
"2  c #2C1300",
"3  c #2B1C05",
"4  c #221709",
"5  c #23190F",
"6  c #2C1E0C",
"7  c #301900",
"8  c #221C15",
"9  c #231F1C",
"0  c #362300",
"q  c #332108",
"w  c #22201E",
"e  c #2C241B",
"r  c #2D2216",
"t  c #31261B",
"y  c #041C28",
"u  c #1D2124",
"i  c #182128",
"p  c #13212A",
"a  c #0B2938",
"s  c #1F2930",
"d  c #122A38",
"f  c #1E3037",
"g  c #232323",
"h  c #282727",
"j  c #292827",
"k  c #23262A",
"l  c #23282D",
"z  c #292929",
"x  c #322B25",
"c  c #382E23",
"v  c #332E29",
"b  c #3E3220",
"n  c #35312E",
"m  c #3C352E",
"M  c #252D33",
"N  c #2C2F31",
"B  c #2E3235",
"V  c #21313A",
"C  c #2F3539",
"Z  c #2D383F",
"A  c #353535",
"S  c #3A3634",
"D  c #3C3935",
"F  c #313639",
"G  c #36393A",
"H  c #3A3A3B",
"J  c #403E3D",
"K  c #42403E",
"L  c #2C3C45",
"P  c #273844",
"I  c #323D44",
"U  c #3B3E41",
"Y  c #2C404C",
"T  c #3D4143",
"R  c #33434C",
"E  c #3E4448",
"W  c #354650",
"Q  c #364954",
"!  c #374E5C",
"~  c #3A4E5B",
"^  c #3B515D",
"/  c #194A64",
"(  c #1C536F",
")  c #155777",
"_  c #3E5562",
"`  c #3E5A67",
"'  c #225571",
"]  c #414142",
"[  c #444749",
"{  c #45494B",
"}  c #425C6B",
"|  c #405865",
" . c #466272",
".. c #496574",
"X. c #4D6C7D",
"o. c #1E6081",
"O. c #1E6588",
"+. c #236D93",
"@. c #247097",
"#. c #25749C",
"$. c #2477A0",
"%. c #287CA6",
"&. c #277DA8",
"*. c #287EA9",
"=. c #2679A2",
"-. c #4E6F81",
";. c #527284",
":. c #557689",
">. c #577A8D",
",. c #597B8F",
"<. c #5B7E92",
"1. c #2B83AF",
"2. c #2B87B4",
"3. c #5D8397",
"4. c #5E8499",
"5. c #60879C",
"6. c #62899E",
"7. c #658DA3",
"8. c #6790A6",
"9. c #6A94AB",
"0. c #6E9AB2",
"q. c #709CB5",
"w. c #729FB8",
"e. c #75A3BD",
"r. c #2D90C0",
"t. c #339ACD",
"y. c #369ED3",
"u. c #36A1D7",
"i. c #36A3D9",
"p. c #78A7C1",
"a. c #7AAAC5",
"s. c #7DAEC9",
"d. c #80B2CE",
"f. c #83B6D2",
"g. c #85B9D6",
"h. c #87BBD9",
"j. c #88BDDB",
"k. c #89BEDB",
"l. c #8BC1DF",
"z. c #8FC6E4",
"x. c #8FC7E6",
"c. c #8DC5E3",
"v. c #90C7E6",
"b. c #90C7E6",
"n. c #90C8E6",
"m. c #90C8E7",
"M. c #90C9E7",
"N. c #91C8E7",
"B. c #90C8E7",
"V. c #91C9E8",
"C. c #92CBEA",
"Z. c #92CAE9",
"A. c #93CCEB",
"S. c #93CCEC",
"D. c #94CDED",
"F. c #95CEEE",
"G. c #95CFEF",
"H. c #95CFEE",
"J. c #96CFEF",
"K. c #94CEED",
"L. c #93CCEB",
"P. c #96CFF0",
"I. c #97D1F1",
"U. c #97D2F2",
"Y. c #97D1F2",
"T. c #96D0F1",
"R. c #98D2F2",
"E. c #9BD6F7",
"W. c #99D4F5",
/* pixels */
"                                                                                              o o                                                                                               ",
"                                                                                          o A H H A o                                                                                           ",
"                                                                                        & H ] ] ] ] H &                                                                                         ",
"                                                                                      . G ] H ] ] K ] G .                                                                                       ",
"                                                                                      z ] H ] ] ] ] H ] z                                                                                       ",
"                                                                                    . H ] H H ] ] H H ] H .                                                                                     ",
"                                    o                                               ; k G ] ] ] ] ] ] G k 9                                               o                                     ",
"                                . * ; * .                                         o A A g z A A A A z g A A o                                         . * ; * .                                 ",
"                                & ; * ; &               o o                       g G A A A B N N B A A A G g                       o o               & ; * ; &                                 ",
"                                A A A A A             o ; ; o                     A G A H G 2 3 3 2 G H A G A                     o ; ; o             A A A A A                                 ",
"                                A G A G A             * ; ; ;                   * A A H , 9 ;.X.X.;.9 , H A A *                   ; ; ; *             A G A G A                                 ",
"                                A G A G A             z G G A                   g S H + X.g.R.s.s.R.g.X.+ H S g                   A G G z             A S A G A                                 ",
"                                A G A G A             z A A A                   z H , X.Z.A.H.a.a.H.A.Z.X., H z                   A A A z             A G A G A                                 ",
"                                F U H U G             B U U G                   A G k h.H.x.H.a.a.H.x.H.h.k G A                   G U U B             G U H U F                                 ",
"                                , > + : O             . : : O                 & U , ;.H.v.m.H.s.s.H.m.m.H.;., U &                 O : : .             O : + > ,                                 ",
"                              ^ ..<.4.3.4.5.6.6.6.6.6.3.3.4.4.5.6.6.6.6.6.7.3.M H + 6.H.m.x.I.8.8.I.x.m.H.6.+ H M 3.7.6.6.6.6.6.5.4.4.3.3.6.6.6.6.6.5.4.3.4.<...^                               ",
"                        -.0.j.Z.Z.H.H.H.H.I.R.I.I.R.I.H.H.H.I.I.R.I.I.I.I.E.k.8 T + 7.H.x.H.f.$ $ f.H.x.H.7.+ T 8 k.E.I.I.I.I.R.I.I.H.H.H.I.R.I.I.R.I.H.H.H.H.Z.Z.j.0.-.                        ",
"                    >.g.I.H.H.Z.Z.m.m.v.m.m.m.m.m.m.m.m.m.v.m.m.m.m.m.m.x.H.e.O E + 7.H.Z.x.~ x x ~ x.Z.H.7.+ E O e.H.x.m.m.m.m.m.m.v.m.m.m.m.m.m.m.m.m.v.m.m.Z.Z.H.H.I.g.>.                    ",
"                ! d.I.H.Z.m.m.Z.Z.Z.Z.Z.Z.Z.Z.Z.Z.Z.m.Z.Z.Z.Z.Z.Z.Z.Z.Z.v.H.7.+ E + 7.H.S.>.+ U U + >.S.H.7.+ E + 7.H.v.Z.Z.Z.Z.Z.Z.Z.Z.Z.Z.Z.Z.Z.Z.Z.Z.Z.Z.Z.Z.Z.m.m.Z.H.I.d.!                 ",
"              :.Z.I.m.m.Z.Z.Z.Z.Z.Z.Z.Z.Z.Z.Z.Z.Z.Z.Z.Z.Z.Z.Z.Z.Z.Z.Z.Z.m.H.:.> T + 6.E.0.X U A A U X 0.E.6.+ T > :.H.m.Z.Z.Z.Z.Z.Z.Z.Z.Z.Z.Z.Z.Z.Z.Z.Z.Z.Z.Z.Z.Z.Z.Z.Z.m.m.I.Z.:.              ",
"            5.I.S.v.Z.Z.Z.Z.Z.Z.Z.Z.Z.m.m.m.m.m.m.m.m.Z.Z.Z.Z.Z.Z.Z.Z.Z.Z.Z. .6 T + 7.j.@ A G A A G A @ j.7.+ T 6  .Z.Z.Z.Z.Z.Z.Z.Z.Z.Z.Z.m.m.m.m.m.m.m.m.Z.Z.Z.Z.Z.Z.Z.Z.Z.v.S.I.5.            ",
"          4.I.Z.m.Z.Z.Z.Z.Z.Z.Z.m.v.Z.Z.H.H.H.H.H.H.Z.Z.v.m.Z.Z.Z.Z.Z.Z.Z.c.R v H t | } 3 H A A A A H 3 } | t H v R c.Z.Z.Z.Z.Z.Z.Z.m.v.Z.Z.H.H.H.H.H.H.Z.Z.v.m.Z.Z.Z.Z.Z.Z.Z.m.Z.I.4.          ",
"        ;.I.Z.m.Z.Z.Z.Z.Z.m.v.Z.H.H.Z.l.f.d.p.a.f.f.c.Z.H.H.Z.v.m.Z.Z.m.Z.k.C A A G 8 e H A H U U H A H e 8 G A A C k.Z.m.Z.Z.m.v.Z.H.H.Z.c.f.f.a.p.d.f.l.Z.H.H.Z.v.m.Z.Z.Z.Z.Z.m.Z.I.;.        ",
"      Y Z.H.m.Z.Z.Z.Z.Z.v.Z.H.m.s.6. .L @ O . . O $ R  .6.a.x.H.A.v.m.m.H.d.# G A A G G G G > + + > G G G G A A G # d.H.m.m.v.A.H.x.a.6. .R $ O . . O @ L  .6.s.m.H.Z.v.Z.Z.Z.Z.Z.m.H.Z.Y       ",
"      p.I.x.Z.Z.Z.Z.m.m.H.x.0._ . . + w z z B B z z 9 + . . Q 7.j.H.Z.x.H.s.+ H A A A H r w >.9.9.>.w r H A A A H + s.H.x.Z.H.j.7.Q . . + 9 z z B B z z w + . . _ 0.x.H.m.m.Z.Z.Z.Z.x.I.p.      ",
"    X.I.Z.Z.Z.Z.Z.m.Z.H.e.Q . # B B N z z z z z z z z N B B 4 . k 6.c.H.H.e.+ H A A H 6 ^ f.H.H.H.H.f.^ 6 H A A H + e.H.H.c.6.k . 4 B B N z z z z z z z z N B B # . Q e.H.Z.m.Z.Z.Z.Z.Z.I.X.    ",
"    s.I.v.Z.Z.Z.m.A.m.<.. 4 C z z z z z z z z z z z z z z z z B h . L e.E.0.O U A G n Z j.H.x.v.v.x.H.j.Z n G A U O 0.E.e.L . h B z z z z z z z z z z z z z z z z C 4 . <.m.A.m.Z.Z.Z.v.I.s.    ",
"  } H.Z.Z.Z.Z.m.A.c.} . C z h z z z z z z z z z z z z z z z z z z C 8 . 7.7.+ H A U + 8.I.x.Z.Z.Z.Z.x.I.8.+ U A H + 7.7.. 8 C z z z z z z z z z z z z z z z z z z h z C . } c.A.m.Z.Z.Z.Z.H.}   ",
"  7.I.m.Z.Z.m.Z.c.~ X F z z z z z z z z z z z z z z z z z z z z z h z N X i A A A G 5 f.H.m.Z.Z.Z.Z.m.H.f.5 G A A A i X N z h z z z z z z z z z z z z z z z z z z z z z F X ~ c.Z.m.Z.Z.m.I.7.  ",
"  d.H.m.Z.m.Z.Z. .X F h z z z z z z z z z z z z z z z z z z z z z z z z B = A A A H + a.H.m.Z.Z.Z.Z.m.H.a.+ H A A A = B z z z z z z z z z z z z z z z z z z z z z z z z h F X  .Z.Z.m.Z.m.H.d.  ",
"P x.S.m.Z.m.H.4.. F h z z z z z z z z z z z z z z z z z z z z z z z z z z ; A A A H + } Z.m.Z.Z.Z.Z.m.Z.} + H A A A ; z z z z z z z z z z z z z z z z z z z z z z z z z z h F . 4.H.m.Z.m.S.x.P ",
"..H.Z.Z.v.H.a.. B z z z z z z z z z z z z z z z z z z z z z z z z z z z z ; A A A A F O p.H.v.Z.Z.v.H.p.O F A A A A ; z z z z z z z z z z z z z z z z z z z z z z z z z z z z B . a.H.v.Z.Z.H...",
":.I.Z.Z.Z.v.^ # N z z z z z z z z z z z z z z z z z z z z z z z z z z z z ; A A A G N t } Z.Z.Z.Z.Z.Z.} t N G A A A ; z z z z z z z z z z z z z z z z z z z z z z z z z z z z N # ^ v.Z.Z.Z.I.>.",
">.I.Z.v.H.0.. F z z z z z z z z z z z z z z z z z z z z z z z z z z z z z ; A A A G z T > e.H.v.v.H.e.> T z G A A A ; z z z z z z z z z z z z z z z z z z z z z z z z z z z z z F . 0.H.v.Z.I.>.",
">.I.Z.Z.m._ # N z z z z z z z z z z z z z z z z z z z z z z z z z z z z z ; A A A G z H m _ m.Z.Z.m._ m H z G A A A ; z z z z z z z z z z z z z z z z z z z z z z z z z z z z z N # _ m.Z.Z.I.>.",
">.I.m.H.a.. B z z z z z z z z z z z z z z z z z z z z z z z z z z z z z z ; A A A G z G { : w.H.H.w.: { G z G A A A ; z z z z z z z z z z z z z z z z z z z z z z z z z z z z z z B . a.H.m.I.>.",
">.I.m.H.<.. B z z z z z z z z z z z z z z z z z z z z z z z z z z z z z z ; A A A G z G ] S ~ m.m.~ S ] G z G A A A ; z z z z z z z z z z z z z z z z z z z z z z z z z z z z z z B . <.H.m.I.>.",
">.I.Z.x.~ 1 z z z z z z z z k ; & o o o o * ; k z z z z z z z z z z z z z ; A A A G z G ] { + e.e.+ { ] G z G A A A ; z z z z z z z z z z z z z k ; * o o o o & ; k z z z z z z z z 1 ~ x.Z.I.>.",
">.H.S.f.@ z z z z z z z k *                   o ; z z z z z z z z z z z z ; A A A G z G ] ] D W W D ] ] G z G A A A ; z z z z z z z z z z z z ; o                   * k z z z z z z z @ f.S.H.>.",
">.H.H.e.. B z z z z z ; .                         o k z z z z z z z z z z ; z A A G z G ] H ] n n ] H ] G z G A A z ; z z z z z z z z z z k o                         . ; z z z z z B . e.H.H.>.",
">.H.H.9.. B z z z z ;                               . g z z z z z z z z z ; z G A G z G ] ] H ] ] J ] ] G z G A G z ; z z z z z z z z z g .                               ; z z z z B . 9.H.H.>.",
">.H.H.4.. B z z z ;                                   . k z z z z z z z z ; z G A G z G ] ] ] ] ] ] ] ] G z G A G z 9 z z z z z z z z k .                                   ; z z z B . 4.H.H.>.",
">.H.H.4.. B z z k .                                     & z z z z z z z z g z G A G z G ] H H H J ] H ] G z G A G z g z z z z z z z z &                                     . k z z B . 4.H.H.>.",
">.H.H.4.. B z z *                                         ; z z z z z z z g k G A G z G G ; ; ; ; 9 ; G G z G A G k g z z z z z z z ;                                         * z z B . 4.H.H.>.",
",.H.H.9.. B z k                                           & z z z z z z z k k G A G z H A g ; g g ; g A H z G A G k k z z z z z z z &                                           k z B . 9.H.H.,.",
">.H.H.e.. B z ;                                             k z z z z z z k g A A G z H A g g g k g g A H h G A A g k z z z z z z k                                             ; z B . e.H.H.>.",
">.I.S.g.$ z z *                                             ; z z z z z z z ; A A G z H A g g g g g g A H h G A A ; z z z z z z z ;                                             * z z $ g.S.I.>.",
"` S.Z.m._ # N o                                             ; z z z z z z k ; A A G z H A g g g g g g A H h G A A ; k z z z z z z ;                                             o N # _ m.Z.S.` ",
"  d.H.H.8.. C .                                             * z z z z z z * A A A G h H A k k k k g g z H z G A S A * z z z z z z *                                             . C . 8.H.H.d.  ",
"   .H.H.j.M g %                                             * z z z z k * A G A A G z G A * * ; * * * A G z G A A G A * k z z z z *                                             % g M j.H.P. .  ",
"    >.I.E.9.. s                                             ; z z z g ; A A A A A S z G ] A A A A A A ] G z A A A A S A ; g z h z ;                                             s . 9.E.I.>.    ",
"      X.k.I.>..                                             ; z z k ; G G G G G G G z H ] ] ] ] ] ] ] ] G z G G G G G G G ; k z z u                                             . >.I.k.X.      ",
"          ,.6..                                             * ; ; & g z h k h k h z ; z A z z z z z z A z ; z k k k k k z g & ; ; *                                             . 6.,.          ",
"                                                          - A A A A A A A A A A A A A A A G G S A A G A A A A A A A A A A A A A A A -                                                           ",
"                                                        ) L K ] ] ] ] ] ] ] ] ] ] ] ] ] H A G F A G A H ] ] ] ] ] ] ] ] ] ] ] ] ] K L )                                                         ",
"                                                      @.&.0 ] H ] ] ] ] ] ] ] ] ] H ] G ; ; ; ; ; ; ; ; H ] J ] ] ] ] ] ] ] ] ] H ] 0 &.@.                                                      ",
"                                                    +.u.' b ] K ] ] ] ] ] ] ] ] ] U ] G ; z z z z z z ; G ] J ] ] ] K K ] ] ] ] ] ] b ' u.+.                                                    ",
"                                                  +.y.r.B K T K ] ] ] ] ] ] ] ] ] ] H k & ; = = = = = & k H ] ] ] ] ] ] ] ] ] ] K T K B r.y.+.                                                  ",
"                                                #.y.u.$.0 [ K ] ] ] ] H J K ] ] H ] z ; z z z z z z z z ; z ] J ] ] ] J H ] ] ] ] ] [ 0 $.u.y.#.                                                ",
"                                              #.u.t.=.d $ h G n 7 c ] [ [ ] ] ] H ] z ; g 9 ; 9 ; ; ; g ; z ] H ] ] ] [ [ ] c 7 n G h $ d =.t.u.#.                                              ",
"                                            %.i.2./ O 8 u X V -.<...z : < c J ] [ ] ] A A A A A A A F A A ] ] [ ] J c < : z ..<.-.V X u 8 O / 2.i.%.                                            ",
"                                          1.t.o.O + l g g k = M ;.a.g.a.6. .I 1 > q D ] { { ] ] ] [ { { ] D q > 1 I  .6.a.g.a.;.M = k g g l + O o.t.1.                                          ",
"                                        *.%.p + k k g g g g k = . . ..a.H.I.c.a.9.:.^ h > 2 c J J c 2 > h ^ :.9.a.c.I.H.a.... . = k g g g g k k + p %.*.                                        ",
"                                    y O.( O 8 l g g g g g ; &       , X ^ q.x.E.I.A.c.f.e.4. .I I  .4.e.f.c.A.I.E.x.q.^ X ,       & ; g g g g g l 8 O ( O.y                                     ",
"                                  . a i + l g w g g g ; o           G T e O Q 9.l.H.H.Z.H.H.Z.k.k.Z.H.H.Z.H.H.l.9.Q O e T G           o ; g g g w g l + i a .                                   ",
"                                . & 8 9 k w g g ; * o               A A G U x O I 7.c.I.H.x.m.Z.Z.m.x.H.I.c.7.I O x U G A A               o * ; g g w k 9 8 & .                                 ",
"                                  & u g g g ; &                     A G A A G U n . f 6.c.I.H.m.m.H.I.c.6.V . n U G A A G A                     & ; g g g u &                                   ",
"                                    . * ; o                         A A A A A A G M     . 3.j.I.I.j.3..     M G A A A A A A                         o ; * .                                     ",
"                                                                    A G A A A G G *           <.<.          * G G A A A G A                                                                     ",
"                                                                    z z z z z z z *                         * z z z z z z z                                                                     ",
"                                                                    & * & * * * & o                         o & * * * & * &                                                                     ",
"                                                                    o & & & & & o                             o & & & & & o                                                                     "
};
