/* XPM */
static char *_70db142693f424ac0262a6c3ef9b794RVTYxyfTWwDFan15[] = {
/* columns rows colors chars-per-pixel */
"52 36 245 2 ",
"   c None",
".  c black",
"X  c #010000",
"o  c #020202",
"O  c #0A0000",
"+  c #0F0000",
"@  c #090909",
"#  c #160000",
"$  c #170000",
"%  c #1A0000",
"&  c #1C0000",
"*  c #1D0000",
"=  c #1D0100",
"-  c #160D02",
";  c #160F02",
":  c #140C05",
">  c #1A0A00",
",  c #1B0B00",
"<  c #181107",
"1  c #16100C",
"2  c #101010",
"3  c #111112",
"4  c gray8",
"5  c #151515",
"6  c #161616",
"7  c gray9",
"8  c #1F1B15",
"9  c #1F1B17",
"0  c #1F1C16",
"q  c #181919",
"w  c #191919",
"e  c gray10",
"r  c #1B1B1A",
"t  c #1B1B1B",
"y  c #1A1B1C",
"u  c gray11",
"i  c #1D1D1D",
"p  c #1D1E1E",
"a  c #1E1E1E",
"s  c gray12",
"d  c #210000",
"f  c #240000",
"g  c #250000",
"h  c #2A0000",
"j  c #230900",
"k  c #230A00",
"l  c #290C00",
"z  c #291700",
"x  c #201C17",
"c  c #251E15",
"v  c #251F15",
"b  c #211C18",
"n  c #221F1D",
"m  c #201F1E",
"M  c #362608",
"N  c #2F2315",
"B  c #25201C",
"V  c #30271D",
"C  c #372B19",
"Z  c #1E1F21",
"A  c #1C1F23",
"S  c #1F2021",
"D  c #1F2121",
"F  c #1C2023",
"G  c #1A2125",
"H  c #1B2226",
"J  c #1F2325",
"K  c #1B2B36",
"L  c #1C2B36",
"P  c #202020",
"I  c gray13",
"U  c #212223",
"Y  c #222222",
"T  c #232323",
"R  c #212527",
"E  c gray14",
"W  c #252525",
"Q  c gray15",
"!  c #272727",
"~  c #282727",
"^  c #25292C",
"/  c #24292D",
"(  c #262A2D",
")  c #282828",
"_  c #292928",
"`  c gray16",
"'  c #29292B",
"]  c #2A2A2A",
"[  c gray17",
"{  c #2C2B2A",
"}  c #2A2B2C",
"|  c #2B2B2C",
" . c #2B2D2F",
".. c #2C2C2C",
"X. c #2C2C2D",
"o. c #2D2D2D",
"O. c #2F2F2F",
"+. c #322A21",
"@. c #312C27",
"#. c #302F2E",
"$. c #35322F",
"%. c #242B30",
"&. c #212C34",
"*. c #293238",
"=. c #2A373E",
"-. c gray19",
";. c #303031",
":. c #313131",
">. c #323232",
",. c gray20",
"<. c #353331",
"1. c #363330",
"2. c #353432",
"3. c #313335",
"4. c #313336",
"5. c #353534",
"6. c #353535",
"7. c #363535",
"8. c #363635",
"9. c #343536",
"0. c #353637",
"q. c gray21",
"w. c #363637",
"e. c #363737",
"r. c #373737",
"t. c #383737",
"y. c #333638",
"u. c #33373B",
"i. c #353739",
"p. c #353839",
"a. c #373839",
"s. c #363939",
"d. c #37393A",
"f. c #36393B",
"g. c #363A3D",
"h. c #373A3D",
"j. c #373B3E",
"k. c gray22",
"l. c #393939",
"z. c #39393A",
"x. c #38393B",
"c. c #3A3A3A",
"v. c gray23",
"b. c #393B3C",
"n. c #393C3E",
"m. c #393C3F",
"M. c #3A3D3F",
"N. c #3F3F3F",
"B. c #123F55",
"V. c #123F57",
"C. c #2A3944",
"Z. c #213A4A",
"A. c #363C41",
"S. c #333F47",
"D. c #3A3E42",
"F. c #384B56",
"G. c #1B4963",
"H. c #1B4B64",
"J. c #2C4E63",
"K. c #3A5667",
"L. c #404041",
"P. c gray26",
"I. c #444444",
"U. c #445762",
"Y. c #49606D",
"T. c #4A606D",
"R. c #486372",
"E. c #4D6A7A",
"W. c #4E6B7C",
"Q. c #526D7D",
"!. c #516F7F",
"~. c #165D80",
"^. c #156E97",
"/. c #156E98",
"(. c #1F729A",
"). c #21739B",
"_. c #547486",
"`. c #587A8E",
"'. c #3184AF",
"]. c #2A8BB9",
"[. c #2B8BBA",
"{. c #5B8096",
"}. c #5E8094",
"|. c #5F8397",
" X c #60869B",
".X c #61869B",
"XX c #60879D",
"oX c #428EB7",
"OX c #458FB8",
"+X c #468FB8",
"@X c #4690B9",
"#X c #4691BA",
"$X c #638CA2",
"%X c #6890A6",
"&X c #6B93A9",
"*X c #6A93AA",
"=X c #6E98B0",
"-X c #709BB3",
";X c #729DB5",
":X c #73A0BA",
">X c #75A4BC",
",X c #76A6BF",
"<X c #278EC0",
"1X c #2791C4",
"2X c #2890C2",
"3X c #2B97CB",
"4X c #36A3DA",
"5X c #37A4DA",
"6X c #79A8C2",
"7X c #7AAAC5",
"8X c #7CACC7",
"9X c #7CADC8",
"0X c #7DAEC8",
"qX c #7FB0CB",
"wX c #80B2CD",
"eX c #81B3CF",
"rX c #83B7D3",
"tX c #84B6D2",
"yX c #88BBD6",
"uX c #87BBD8",
"iX c #88BCDA",
"pX c #8CC3E0",
"aX c #8CC3E1",
"sX c #8FC3E0",
"dX c #8EC4E3",
"fX c #8FC6E4",
"gX c #90C5E2",
"hX c #92C8E5",
"jX c #91C9E8",
"kX c #91C9E9",
"lX c #91CBEA",
"zX c #92CBEA",
"xX c #95CCEA",
"cX c #94CDED",
"vX c #94CEED",
"bX c #96D0F0",
"nX c #96D0F1",
"mX c #97D2F2",
"MX c #97D2F3",
"NX c #98D3F4",
"BX c #99D5F5",
"VX c #9AD5F6",
"CX c #9AD6F7",
"ZX c #9CD8FA",
"AX c #9DD9FB",
/* pixels */
"                                                                                                        ",
"                                          ! I [  .     .[ I !                                           ",
"                                          -.[ 4.+.X X +.4.[ -.                                          ",
"                                          -.[ k K.;X;XK.k [ -.                                          ",
"                                          4.z ^.@XxXxX@X/.z 4.                                          ",
"                                          -.c 1X@XsXsX@X1Xc -.                                          ",
"                                          [ 8 <X+XgXgX+X<X0 [                                           ",
"                                          n J 2X+XhXhX+X2XJ n                                           ",
"                                          ; &.3XoXyXyXoX3X&.;                                           ",
"                                          > Z.[.J.s.s.J.[.Z.>                                           ",
"                                          x L C.C e.e.C C.K x                                           ",
"                                          I b 1.s.e.e.s.$.8 I                                           ",
"                                          I D e.t.e.e.t.e.Z I                                           ",
"                        t I i             I i [ -.e.e.-.[ i I             i I t                         ",
"                        k.P.N.            i I e.O.[ [ O.e.I i             N.P.k.                        ",
"                        k.I.P.      1 i t i I e.k.-.-.k.e.I i t i 1       P.I.k.                        ",
"                        g.n.B X X n %.t t i I e.e.-.-.e.e.I i t t %.n X X B n.g.                        ",
"                    O X X X =.W.`.W.S.#.O.u ! e.e.-.-.e.e.! i O.#.S.W.`.W.=.X X X O                     ",
"            X X X X *.E.&X0X8X%XT.e.1.k.O.t ! e.e.-.-.e.e.! t O.k.1.e.T.%X8X0X&XE.*.X X X X             ",
"      X X + F._.&XwXlXlXwX}.A.g N e.e.e.O.t ! e.t.-.-.k.e.! t O.e.e.e.N g A.}.wXlXlXwX&X_.F.+ X X       ",
"  G R. X-XtXfXmXBXsX=XU.& g 2.n.s.e.e.k.O.t [ -.-.O.O.-.-.[ t O.k.e.e.s.n.2.g & U.=XsXBXmXfXtX-X XR.G   ",
"    $XlXAXvXlXuXQ.u.d V n.n.e.e.e.e.e.e.[ i I O.-.O.O.-.O.I i [ e.e.e.e.e.e.n.n.V d u.Q.uXlXvXAXlX$X    ",
"        ,XNXvXdX}.d b.D.e.e.e.e.e.e.e.k.O.t ! e.e.e.e.e.e.! t { k.e.e.e.e.e.e.e.D.b.d }.dXvXNX,X        ",
"           XiXBXmX,X{ l k.e.e.k.k.k.e.e.} Z ~ k.e.e.e.e.k.~ D } e.e.k.k.k.e.e.k.l { ,XmXBXiX X          ",
"              :XmXBXsXQ.@.s.-.-.[ ! i D < % / s.g.i.i.g.s./ % < D i ! [ -.-.s.@.Q.sXBXmX:X              ",
"                {.7XqXXX: y 3 @ X       V.G.$ & $ & & $ & $ H.V.      X @ 3 y : XXqX7X{.                ",
"                    X                     4X(.T.&X0X0X&XT.).5X                    X                     ",
"                                          '.~.rXAXmXmXAXrX~.'.                                          ",
"                                    ! } O.M h &X0X6X6X0X&Xh M O.} !                                     ",
"                            7 [ -.e.k.k.e.g.u.X X X X X X u.g.e.k.k.e.-.[ 7                             ",
"                              I ! ! -.e.e.e.-.R / / / / R -.e.e.e.-.! ! I                               ",
"                                  7 i ! -.k.-.t t t t t t -.k.-.! i t                                   ",
"                                    7 i i [ -.t t t t t t -.[ i i 7                                     ",
"                                        t I i 7 t t t t 7 i I t                                         ",
"                                          7 i 3 7 7 7 7 3 i 7                                           ",
"                                                                                                        "
};
