/* XPM */
static char *f34cd62e6bb942bfd90edb581419d4d9Pp5OfIeDTfhvxpDZ[] = {
/* columns rows colors chars-per-pixel */
"70 72 156 2 ",
"   c None",
".  c #010101",
"X  c #0E0100",
"o  c #0D0905",
"O  c #0D0D0D",
"+  c #140100",
"@  c #1C0100",
"#  c #1E0C00",
"$  c #100D0C",
"%  c #140C05",
"&  c #181007",
"*  c #14100D",
"=  c #0C0E10",
"-  c #151515",
";  c #1B1916",
":  c #16181A",
">  c #1B1B1B",
",  c #220000",
"<  c #230C00",
"1  c #2E0E00",
"2  c #350A00",
"3  c #241502",
"4  c #2C1400",
"5  c #2B1C00",
"6  c #231708",
"7  c #231808",
"8  c #281D0E",
"9  c #3A1C00",
"0  c #221B14",
"q  c #221F1B",
"w  c #2B2014",
"e  c #23211E",
"r  c #2B241D",
"t  c #312211",
"y  c #3D2D11",
"u  c #362B1D",
"i  c #181E23",
"p  c #1D2124",
"a  c #1B232A",
"s  c #182932",
"d  c #152D3C",
"f  c #232323",
"g  c #282726",
"h  c #222628",
"j  c #25292C",
"k  c #2A2A2A",
"l  c #322E2A",
"z  c #3C3122",
"x  c #3B3129",
"c  c #3F382F",
"v  c #2A2E31",
"b  c #2D3134",
"n  c #23333E",
"m  c #2B343B",
"M  c #2F393F",
"N  c #343434",
"B  c #3B3633",
"V  c #3D3935",
"C  c #34373A",
"Z  c #34393B",
"A  c #3C3C3C",
"S  c #402C03",
"D  c #413F3C",
"F  c #41403F",
"G  c #1E3747",
"H  c #233643",
"J  c #2B3A45",
"K  c #233C4C",
"L  c #303E46",
"P  c #3D3F40",
"I  c #1C445B",
"U  c #3C4144",
"Y  c #36434B",
"T  c #2E4656",
"R  c #21465C",
"E  c #20485F",
"W  c #364751",
"Q  c #344955",
"!  c #3A4B54",
"~  c #374F5D",
"^  c #044967",
"/  c #1A4D68",
"(  c #00567C",
")  c #00587E",
"_  c #165D7E",
"`  c #214A62",
"'  c #2B5167",
"]  c #2C5269",
"[  c #3C5564",
"{  c #3D596A",
"}  c #2C5772",
"|  c #414242",
" . c #434548",
".. c #44484B",
"X. c #48494B",
"o. c #454A50",
"O. c #494F53",
"+. c #415765",
"@. c #435865",
"#. c #45606E",
"$. c #466272",
"%. c #496778",
"&. c #4C6A7B",
"*. c #526F7F",
"=. c #0E6388",
"-. c #106389",
";. c #00719E",
":. c #0C729E",
">. c #12749F",
",. c #266586",
"<. c #297297",
"1. c #24749C",
"2. c #2377A0",
"3. c #2579A2",
"4. c #2A7CA6",
"5. c #4E768C",
"6. c #4F7183",
"7. c #517082",
"8. c #537488",
"9. c #57788B",
"0. c #4C7B97",
"q. c #597C91",
"w. c #1B87B7",
"e. c #1A87B8",
"r. c #178ABD",
"t. c #2C85B2",
"y. c #5D8297",
"u. c #51829D",
"i. c #60869B",
"p. c #63899E",
"a. c #5E92AF",
"s. c #658EA4",
"d. c #688FA5",
"f. c #6491AA",
"g. c #6B96AD",
"h. c #6D99B1",
"j. c #6B9AB3",
"k. c #649AB9",
"l. c #729FB7",
"z. c #75A2BA",
"x. c #77A5BF",
"c. c #75A4BD",
"v. c #78A4BC",
"b. c #248FC2",
"n. c #2290C3",
"m. c #349BCF",
"M. c #359FD5",
"N. c #36A1D6",
"B. c #3AA4D9",
"V. c #78A7C1",
"C. c #7EACC6",
"Z. c #80B2CD",
"A. c #82B5D1",
"S. c #8EC5E4",
"D. c #94CCEC",
"F. c #9BD5F6",
/* pixels */
"                                                            ~                 Q                                                             ",
"                                                        . & 7.6.            %.&.% .                                                         ",
"                                                      O k k @ .             . # k k O                                                       ",
"                                                      f 6 @ b > .         . > b @ 7 f                                                       ",
"                                                    o q [ #.+ j f O     O f j + $.+.0 o                                                     ",
"                                                    . . h.V.. m > > > > > > m . V.h.. .                                                     ",
"                                                    X @ g.z.. m > > f f > > m . z.g.@ X                                                     ",
"                                                    + , h.c.. M > > f f > > m . c.h., +                                                     ",
"                                                    . . g.c.. m > > f f > > m . c.g.. .                                                     ",
"                                                    * e #.&.+ j > > f f > > j + &.#.e *                                                     ",
"                                                    = k @ X v > > p f f p q > v X @ k =                                                     ",
"                                                      $ b C f > p @ @ @ @ f > f C b $                                                       ",
"                                                        o g k a # d 1.1.d # h k g o                                                         ",
"                                                        O > h ; @ 1.M.M.1.@ ; h > O                                                         ",
"                                                        > g i j < <.B.B.<.< j i g >                                                         ",
"                                                        - k g 3 , . -.=.. , 3 g k -                                                         ",
"                                                        : k g I _ ] N N ' _ I g k :                                                         ",
"                                                        a 5 n 4.;.a.v.C.k.;.4.n 5 a                                                         ",
"                                                        a 5 H 4.>.0.i.s.u.:.4.H 5 a                                                         ",
"            8.&.                                        a 4 K 3./ + X X + / 3.K 4 a                                         &.8.            ",
"          : $.                                          a 4 K 1.K , a a , K 1.K 4 a                                           $.:           ",
"        : >                                             : k j d j e k k e j d j k :                                             > :         ",
"      - > - o                                           - k k r f + +.+.+ f r k k -                                           o - > -       ",
"    - > > k > .                                         - k k j f @ y.y.@ f j k k -                                         . > k > > -     ",
"  - > > k k f - -                                       - k k > b B Y Y B b > k k -                                       - - f k k > > -   ",
"- > > k k k g - > O                           - - O     - k f r u 8 @ @ 8 u r f k -     O - -                           O > - g k k k > > - ",
"O > k k k k k f - > O                       O > > - .   ; j < b ^ 5.z.z.5.^ b < j ;   . - > > O                       O > - f k k k k k > O ",
"- k k k k k k k f - > O                   O f - - > >   p 3 a t.r.j.F.F.j.r.t.a 3 i   > > - - f O                   O > - f k k k k k k k - ",
"> k k k k k k k k f - > O                   k > f g k   a @ ` M.w.s.D.D.s.w.M.` @ a   k g f > k                   O > - f k k k k k k k k > ",
"- k k k k k k k k k f - > O                 k > > g k   a , R m.e.f.D.D.f.e.m.R @ a   k g > > k                 O > - f k k k k k k k k k - ",
"  > f > g k k k k k k f > > O               k > f g f - b @ R m.e.f.D.D.f.e.m.R @ b - f g f > k               O > > f k k k k k k g > f >   ",
"      O k k k g k k k k f > > O             k > f - > k v @ R m.e.f.D.D.f.e.m.R @ v k > - f > k             O > > f k k k k g k k k O       ",
"      > k k > - > k k k k f > > O           k > > - k k v @ R m.e.f.D.D.f.e.m.R @ v k k - > > k           O > > f k g k k > - > k k >       ",
"        > > > f - > k k k k f > > O       > k O > k k k v @ R m.e.f.D.D.f.e.m.R @ v k k k > O k >       O > > f k k k k > - f > > >         ",
"          - g f f - > k k k k f > > O       g - k k k k v @ R m.w.f.D.D.f.w.m.R @ v k k k k - g       O > > f k k k k > - f f g -           ",
"            > f f f - > k k k k f > > O   . > k k k k k v @ E N.b.j.F.F.j.b.N.E @ v k k k k k > .   O > > f k k k k > - f f f >             ",
"              > f f f - > k k k k f - > O > k k k k k k k # G 1.) { d.d.{ ( 1.G # k k k k k k k > O > - f k k k k > - f f f >               ",
"                > f f f - > k k k k f > - k k k k k k k g p q , Y +.Q Q +.! < 0 f g k k k k k k k - > f k k k k > - f f f >                 ",
"                  > f f f - > k k k k f O > j g k k k k f v @ W A.D.S.S.D.A.W @ v f k k k k g j > O f k k k k > - f f f >                   ",
"                    > f f f - > k k k k > N 8 e g k k k f v q M q.s.p.p.s.9.m r v f k k k g e 8 N > k k k k > - f f f >                     ",
"                      > f g f - g k k k f N +.b q k k g f N k l , + + + + , l k N f g k k q b +.N f k k k g - f g f >                       ",
"                        > f - > k k k k j w q.L 0 k k g g N g N P C j j C P N g N g g k k 0 L q.w j k k k k > - f >                         ",
"                          - > k k k k k p N ! b e k k f k N g N Z g N N g Z N g N k f k k e b ! N p k k k k k > -                           ",
"                            f k k k k > - A V N f k k > N N g N N g N N g N N g N N > k k f N V A - > k k k k f                             ",
"                              f k k - N N Z | N e k g > N N g N k N k k N k N g N N e g k e N | Z N N - k k f                               ",
"                              O q > N | N Z | N f k f g Z N k k k N f f N k k k N Z g f k f N | Z N | N > > O                               ",
"                                - A | | N Z | N f k > k Z N k g k N k k N k g k N Z k > k f N | Z N | | Z -                                 ",
"                                N ..| | N Z | N f k > N N N g f N k N N k N f g N N N > k f N | Z N | | ..N                                 ",
"                              > u 1 , 4 8 A | N f k g Z Z Z > f Z k Z Z k Z f q Z Z Z g k f N | A 8 4 , 1 u >                               ",
"                              e *.h.V.l.$.l A k - > q k k k - k N k A A k N k - k k k > > - k A l $.l.V.h.*.e                               ",
"                              s z.Z.c.f.[ 0 k N N N N N N N > k N k | | k N k > N N N N N N N k 0 [ f.c.Z.z.s                               ",
"                                      . t | | | | | | | | | k N N k | | k N N k | | | | | | | | | t .                                       ",
"                                    Y O.| D U A A A A A | A k N k N | | N l N k A | D A A A A P D | O.Y                                     ",
"                                O Z | | n m F | | | | | | | k N k N | | N k N k | | | | | | | F m n | | Z O                                 ",
"                                N | c S H n D | | | | A | Z f N k Z | | Z k N f Z | D | | | | D n H S c | N                                 ",
"                              k | V T ' V D | | | | A | A > - N k Z | | Z k N - > A | A | | | | D V ' T V | k                               ",
"                              Z o.2 2.n.J D | | P A | A f - g N k Z | | Z k N g - > A | A | | | D J n.2.2 o.Z                               ",
"                            k |  .z } ,.Z D | | A | A > > f > k k Z | | A k k > f > > A | A | | D Z ,.} z  .| k                             ",
"                            N | D | y 9 D | | A | A > > g > > - > A | | A > - > > g > > A | A | | D 9 y | D | N                             ",
"                            N | | A  ...| | A | A > > g > > k > - A | | A - > k > > g - > A | A | | .. .A | | N                             ",
"                            N | | | A A | A | A > > g > > k k > - Z | | Z - > k j > > g > > A | A | A A | | | N                             ",
"                            N | | | | | A | A > > g > > k k k > o Z | | Z o > k k k > > g > > A | A | | | | | N                             ",
"                            N | | | | A | A > : g > > k k k k >   N | | N   > k k k k > > g > > A | A | | | | N                             ",
"                            N | | | A | A > - g > O k k k k k f   N | | N   f k k k k k O > g > > A | A | | | N                             ",
"                            N | | | A | g - g > . - k k k k k f   N | | N   f k k k k k - . > g - g | A | | | N                             ",
"                            U  .A A | N - g > .   . - > > > > -   k | | k   - > > > > - .   . > g - N | A A  .U                             ",
"                            + B | A | > f > .     - > > > > > >   f | | f   > > > > > > -     . > f > | A | B +                             ",
"                            y.@.x X.k > > o       - > - - - - > .   U |   . > - - - - > -       o > > k X.x @.y.                            ",
"                            i.$.@ N - - O                           r r                           O - - b @ $.i.                            ",
"                                                                    [ [                                                                     ",
"                                                                    Q Q                                                                     ",
"                                                                                                                                            "
};
