/* XPM */
static char *eeec13dae8534d0eb802eea9d0cd4029nd5jV0TOeUb1g9gX[] = {
/* columns rows colors chars-per-pixel */
"36 47 40 1 ",
"  c black",
". c #070707",
"X c #090909",
"o c #0C0C0C",
"O c #131313",
"+ c #151515",
"@ c gray10",
"# c gray12",
"$ c gray13",
"% c gray17",
"& c #2F2F2F",
"* c gray20",
"= c #353535",
"- c gray28",
"; c #4C4C4C",
": c gray32",
"> c gray34",
", c #646464",
"< c #717171",
"1 c #979797",
"2 c gray64",
"3 c #A4A4A4",
"4 c #AAAAAA",
"5 c #AFAFAF",
"6 c #B1B1B1",
"7 c #B7B7B7",
"8 c #B9B9B9",
"9 c gray",
"0 c LightGray",
"q c gray84",
"w c gray85",
"e c gray87",
"r c #E2E2E2",
"t c #E7E7E7",
"y c gray92",
"u c #EEEEEE",
"i c #F3F3F3",
"p c #F4F4F4",
"a c #F8F8F8",
"s c white",
/* pixels */
"         . *sssssssssssu# .         ",
"         . &yspssssssasq@ .         ",
"      ..Xo.*tapaaaaaapaq$.oX..      ",
"           #tspssssssas0.           ",
"         . &yspssssssasq@ .         ",
"     $365669assssssssssi866561O .   ",
"   . =sssssssssssssssssssssssi# .   ",
"   . &yspssssssssssssssssssasw# .   ",
"..Xo.=yapaasssssssssssssaaapaq$.oX..",
"     #yspssssssssssssssssssasqX     ",
"     &yspssssssssssssssssssasw@ .   ",
"254659assssssssssssssssssssssi756451",
"sssssssssssssssssssssssssssssssssssp",
"usassssssssssssssssssssssssssssssase",
"riuiippppppassssssssssssppppppiiiui0",
"sssssssssssssssssssssssssssssssssssu",
"isassssssssssssssssssssssssssssssase",
";::::::::>:<isassssssasr,:>::::::::-",
"           +tspssssssas0            ",
"           &yspssssssasq@ .         ",
"        .X *yspssssssasq# X.        ",
"         . &yspssssssasq@ .         ",
"         . &yspssssssasq@ .         ",
"         . &yspssssssasq@ .         ",
"         . &yspssssssasq@ .         ",
"         . &yspssssssasq@ .         ",
"           &yspssssssasq@ .         ",
"         . &yspssssssasq@ .         ",
"         . &yspssssssasq@ .         ",
"         . &yspssssssasq@ .         ",
"         . &yspssssssasq@ .         ",
"         . &yspssssssasq@ .         ",
"         . &yspssssssasq@ .         ",
"         . &yspssssssasq@ .         ",
"         . &yspssssssasq@ .         ",
"         . &yspssssssasq@ .         ",
"         . &yspssssssasq@ .         ",
"         . &yspssssssasq@ .         ",
"         . &yspssssssasq@ .         ",
"           &yspssssssasq@ .         ",
"         . &yspssssssasq@ .         ",
"         . &yspssssssasq@ .         ",
"         . &yspssssssasq@ .         ",
"         . &yspssssssasq@ .         ",
"         . %rpippppppip0@ .         ",
"         . *asssssssssst@ .         ",
"         . &isssssssssse@ .         "
};
